<?xml version="1.0" encoding="UTF-8" standalone="no"?>
<svg
   xmlns:dc="http://purl.org/dc/elements/1.1/"
   xmlns:cc="http://creativecommons.org/ns#"
   xmlns:rdf="http://www.w3.org/1999/02/22-rdf-syntax-ns#"
   xmlns:svg="http://www.w3.org/2000/svg"
   xmlns="http://www.w3.org/2000/svg"
   xmlns:sodipodi="http://sodipodi.sourceforge.net/DTD/sodipodi-0.dtd"
   xmlns:inkscape="http://www.inkscape.org/namespaces/inkscape"
   inkscape:version="1.0 (4035a4fb49, 2020-05-01)"
   sodipodi:docname="launcher_icon_fg_crop.svg"
   width="48.0px"
   height="48.0px"
   viewBox="0 0 48.0 48.0"
   version="1.1"
   id="SVGRoot">
  <defs
     id="defs1402">
    <clipPath
       id="clipPath2080"
       clipPathUnits="userSpaceOnUse">
      <rect
         y="-11.298097"
         x="3.0569806"
         height="48"
         width="48"
         id="rect2082"
         style="opacity:0.0645161;fill:#000000;stroke:none;stroke-width:5;stroke-linecap:round;stroke-linejoin:round" />
    </clipPath>
  </defs>
  <sodipodi:namedview
     inkscape:snap-page="true"
     inkscape:object-paths="false"
     inkscape:snap-smooth-nodes="false"
     inkscape:snap-grids="false"
     inkscape:window-maximized="1"
     inkscape:window-y="353"
     inkscape:window-x="2712"
     inkscape:window-height="1017"
     inkscape:window-width="1920"
     showgrid="true"
     inkscape:document-rotation="0"
     inkscape:current-layer="g2070"
     inkscape:document-units="px"
     inkscape:cy="20.842207"
     inkscape:cx="39.010832"
     inkscape:zoom="5.6568543"
     inkscape:pageshadow="2"
     inkscape:pageopacity="0.0"
     borderopacity="1.0"
     bordercolor="#666666"
     pagecolor="#ffffff"
     id="base">
    <inkscape:grid
       type="xygrid"
       id="grid1972" />
  </sodipodi:namedview>
  <metadata
     id="metadata1405">
    <rdf:RDF>
      <cc:Work
         rdf:about="">
        <dc:format>image/svg+xml</dc:format>
        <dc:type
           rdf:resource="http://purl.org/dc/dcmitype/StillImage" />
      </cc:Work>
    </rdf:RDF>
  </metadata>
  <g
     id="layer1"
     inkscape:groupmode="layer"
     inkscape:label="Layer 1">
    <g
       clip-path="url(#clipPath2080)"
       transform="translate(-3.0569805,11.298097)"
       id="g2070">
      <path
         transform="translate(3.0569805,-11.298097)"
         d="m 20.6875,27.75 -11.25,2.4375 -6.5,4.6875 -3.921875,2.824219 A 32.836269,32.836269 0 0 0 -8.4492188,58.541016 32.836269,32.836269 0 0 0 24.386719,91.378906 32.836269,32.836269 0 0 0 57.224609,58.541016 32.836269,32.836269 0 0 0 41.226562,30.351562 l -0.0039,-0.002 L 37.3125,28.9375 30.9375,28 Z"
         style="fill:#3584e4;stroke:none;stroke-width:5;stroke-linecap:round;stroke-linejoin:round"
         id="path2060" />
      <path
         style="fill:#2ec27e;stroke:none;stroke-width:1px;stroke-linecap:butt;stroke-linejoin:miter;stroke-opacity:1"
         d="m 1.1941964,39.921875 c 0.414083,0.191008 0.279392,0.883272 0.2790179,1.339286 -6.829e-4,0.83251 -0.52075018,1.611718 -0.51339287,2.444196 0.003541,0.400684 0.24512097,0.771821 0.26785717,1.171875 0.045667,0.803523 0.09868,1.683046 -0.26785717,2.399554 -0.21950856,0.429096 -0.60399097,1.088495 -1.07142857,0.970982 -0.67785681,-0.170412 -0.59053828,-1.285624 -0.70312501,-1.975446 -0.16302516,-0.99886 -0.16541084,-2.048111 0.0558036,-3.035715 0.1408536,-0.628836 0.59148694,-1.151099 0.79241071,-1.763393 0.11034041,-0.336251 0.01164305,-0.754261 0.22321429,-1.037946 0.21300439,-0.285607 0.61397179,-0.66263 0.93749995,-0.513393 z"
         id="path2046"
         sodipodi:nodetypes="sssssssssss" />
      <path
         id="path2054"
         style="fill:#2ec27e;stroke:none;stroke-width:1px;stroke-linecap:butt;stroke-linejoin:miter;stroke-opacity:1"
         d="m 45.441128,39.470707 c -0.432183,-0.586212 -1.39317,-0.687918 -2.228749,-0.595508 -1.340345,0.148234 -2.729785,-0.09343 -4.039038,0.230666 -0.834615,0.206603 -1.57211,0.6944 -2.24195,1.281362 -0.513226,0.449725 -1.315267,0.400169 -1.961755,0.626262 -0.60821,0.212706 -1.320721,0.256957 -1.834981,0.65276 -0.616028,0.474128 -1.193712,1.073097 -1.078992,1.971446 0.169598,1.328081 0.156901,2.68888 0.111852,4.01976 -0.0099,0.291267 -0.369672,0.679301 -0.265759,0.969968 0.06223,0.174084 0.15183,0.3456 0.34315,0.471918 0.531668,0.351032 1.394021,0.502769 2.04179,0.441147 1.485894,-0.141353 3.000535,-0.426922 4.470047,-0.103222 0.634822,0.139837 1.380496,0.589344 1.674781,1.173974 0.702843,1.396276 0.6747,3.097131 1.443476,4.455724 0.312984,0.553111 1.041706,0.798976 1.650877,0.988665 0.486516,0.151496 1.183023,0.093 1.853587,0.06045 1.309576,-0.06357 2.338972,-1.277236 3.239611,-2.230667 0.610864,-0.646671 0.919148,-1.516228 1.127166,-2.412403 0.223793,-0.964139 -0.08206,-1.869841 -0.260256,-2.787204 -0.210341,-1.082829 -0.413694,-2.156971 -0.40937,-3.26809 0.0056,-1.427778 0.172901,-2.910153 -0.201501,-4.286138 -0.263395,-0.968016 -1.451163,-0.352895 -1.484034,0.42713 -0.03892,0.923456 -1.047398,1.543311 -1.534911,0.507999 -0.23216,-0.493029 -0.220872,-0.99497 -0.255262,-1.550422 -0.02296,-0.472196 -0.0014,-0.830715 -0.159779,-1.045577 z"
         sodipodi:nodetypes="ssssssssssssssssssssssscs" />
      <g
         id="g3036"
         style="fill:#33d17a">
        <path
           sodipodi:nodetypes="sasccscccccccccsscccccccccccccs"
           d="m 44.284517,19.054264 c 0.462596,0.284654 -1.30625,-0.109857 -1.945708,-0.245656 -1.150017,-0.244225 -3.376755,-1.01843 -3.376755,-1.01843 -0.76907,-0.216676 1.482113,1.174376 0.543043,2.023843 -0.944351,0.565512 -1.993581,0.617705 -3.065339,0.559628 -1.290933,0.0094 -3.308198,-0.08804 -3.872798,0.02814 -0.728012,0.149808 0.218137,1.463895 0.359481,2.20063 0.362746,0.913329 -0.666739,1.398142 -1.473719,1.322455 -1.066077,0.0143 -1.987571,0.449486 -2.858976,1.030486 -0.905814,0.549062 -1.787587,0.521155 -2.633928,-0.357143 -0.210766,-0.778605 -0.178356,-1.713958 -0.535147,-2.398436 -0.932173,-0.472594 -1.53959,-1.258464 -2.02501,-2.162019 -0.442411,-0.581267 -1.572735,-0.514656 -2.204938,-0.161985 -1.593812,0.793003 -3.673951,1.201645 -4.429759,3.009888 -0.585867,1.02294 -1.648355,1.913455 -2.82802,2.099832 -0.423322,-1.154861 -0.116545,-2.4066 -0.477453,-3.385589 -0.132502,-0.359424 -0.399986,-0.260431 -0.669803,-0.371135 -0.380468,-0.156103 -0.776205,-0.795732 -1.267115,-0.581655 -1.9323907,0.594568 -3.1090468,2.308339 -4.4393099,3.702271 -1.0193597,0.903547 -2.2875092,1.596004 -2.8066086,2.924007 -1.4762431,2.555793 -2.9123799,5.136996 -4.67124734,7.513734 -0.70427366,1.594265 -1.58097796,3.134354 -1.72181446,4.905646 0.1497025,1.858477 1.0482771,3.840623 0.1267388,5.651449 -0.3162532,0.999949 -0.9722742,2.067202 -0.2990704,3.075338 0.4883909,1.399405 0.2247304,2.959703 0.4967236,4.417411 0.1195572,1.667456 0.5815931,3.351137 0.1449476,5.003006 0.013047,0.515861 0.016901,2.383476 -0.6780049,1.351677 -1.3478744,-1.610495 -1.807318,-3.323361 -2.3909779,-5.321289 -0.853687,-4.245069 -0.8737943,-7.997504 -0.504014,-11.554361 C -3.3074459,30.091676 5.9163471,19.370157 17.8191,15.849772 c 8.066585,-2.621296 18.42187,-1.745025 26.465417,3.204492 z"
           style="fill:#33d17a;stroke:none;stroke-width:1px;stroke-linecap:butt;stroke-linejoin:miter;stroke-opacity:1"
           id="path2043" />
        <path
           sodipodi:nodetypes="sssssssss"
           id="path2048"
           d="m 24.6875,25.625 c 1.816104,-0.03555 3.314268,1.718957 4.464286,3.125 0.400821,0.490055 0.67664,1.113346 0.758928,1.741072 0.03228,0.246231 0.08893,0.590122 -0.111607,0.736607 -0.608465,0.444466 -1.598472,0.05058 -2.232143,-0.357143 -0.848619,-0.546032 -1.028654,-1.746632 -1.674107,-2.522322 -0.40388,-0.485374 -1.007583,-0.794111 -1.361607,-1.316964 -0.198317,-0.292892 -0.494873,-0.640895 -0.401786,-0.982143 0.06149,-0.2254 0.324445,-0.419535 0.558036,-0.424107 z"
           style="fill:#33d17a;stroke:none;stroke-width:1px;stroke-linecap:butt;stroke-linejoin:miter;stroke-opacity:1" />
        <path
           sodipodi:nodetypes="ssssssss"
           id="path2050"
           d="m 32.135478,27.889681 c -0.194481,0.132117 -0.388221,0.31204 -0.457725,0.536643 -0.147026,0.475116 -0.146062,1.089964 0.157836,1.483662 0.807847,1.04656 2.42558,1.721509 3.709154,1.404743 0.955285,-0.235749 1.50457,-1.241336 1.95717,-2.209709 0.23343,-0.499441 0.657185,-1.570729 0.315673,-1.767766 -0.78222,-0.451308 -1.509771,-0.596964 -2.351761,-0.583995 -1.172828,0.01807 -2.360088,0.477294 -3.330347,1.136422 z"
           style="fill:#33d17a;stroke:none;stroke-width:1px;stroke-linecap:butt;stroke-linejoin:miter;stroke-opacity:1" />
        <path
           sodipodi:nodetypes="sssssssssss"
           id="path2052"
           d="m 43.981492,19.724919 c -0.366434,0.02689 -0.853852,0.130254 -0.873517,0.397135 -0.03112,0.422374 0.657263,0.585542 1.058297,0.640755 0.126062,0.01736 0.294098,-0.05422 0.420742,-0.06664 0.872608,-0.08557 1.749415,0.956248 2.415689,0.741667 0.201172,-0.06479 0.313588,-0.306687 0.172842,-0.441352 -0.22703,-0.217219 -0.5961,-0.423727 -1.04382,-0.753119 -0.127418,-0.09374 -0.234006,-0.224913 -0.374178,-0.151598 -0.108737,0.05687 -0.27869,0.09246 -0.27869,0.09246 -0.467726,-0.0268 -0.91947,-0.501725 -1.497365,-0.459309 z"
           style="fill:#33d17a;stroke:none;stroke-width:1px;stroke-linecap:butt;stroke-linejoin:miter;stroke-opacity:1" />
        <path
           sodipodi:nodetypes="ssssssssssssss"
           id="path2058"
           d="m 47.641319,38.979261 c 0.314809,0.379141 0.75372,0.649962 1.193243,0.872835 0.565119,0.28656 1.193443,0.712044 1.811961,0.574524 0.249332,-0.05544 0.486926,-0.275601 0.563476,-0.519281 0.09721,-0.309453 -0.088,-0.649601 -0.209922,-0.950175 -0.165969,-0.409146 -0.436266,-0.769944 -0.696059,-1.126951 -0.685621,-0.942177 -1.451703,-1.828191 -2.264951,-2.662699 -0.265755,-0.272703 -0.523453,-0.56773 -0.850738,-0.76235 -0.292356,-0.17385 -0.622312,-0.31361 -0.961223,-0.342505 -0.256999,-0.02191 -0.571054,-0.04043 -0.76235,0.132583 -0.192849,0.174421 -0.182208,0.405364 -0.09944,0.651864 0.06776,0.201801 0.257853,0.325684 0.397748,0.486136 0.38906,0.446232 0.599344,1.021731 0.872835,1.546796 0.358416,0.688109 0.509786,1.502309 1.005417,2.099223 z"
           style="fill:#33d17a;stroke:none;stroke-width:1px;stroke-linecap:butt;stroke-linejoin:miter;stroke-opacity:1" />
      </g>
    </g>
  </g>
</svg>
